<svg width="120" height="60" viewBox="0 0 440 220" xmlns="http://www.w3.org/2000/svg">
  <rect x="30" y="0" width="80" height="60" fill="white" rx="10" ry="10" />
  <rect x="140" y="0" width="80" height="60" fill="white" rx="10" ry="10" />
  <rect x="250" y="0" width="80" height="60" fill="white" rx="10" ry="10" />
  <rect x="30" y="80" width="80" height="60" fill="#FFA500" rx="10" ry="10" />
  <rect x="140" y="80" width="80" height="60" fill="#FFA500" rx="10" ry="10" />
  <rect x="250" y="80" width="80" height="60" fill="blue" rx="10" ry="10" />
  <rect x="360" y="80" width="80" height="60" fill="blue" rx="10" ry="10" />
  <rect x="30" y="160" width="80" height="60" fill="white" rx="10" ry="10" />
  <rect x="140" y="160" width="80" height="60" fill="white" rx="10" ry="10" />
  <rect x="250" y="160" width="80" height="60" fill="white" rx="10" ry="10" />
</svg>